<svg xmlns="http://www.w3.org/2000/svg" viewBox="0 0 400 560" width="400" height="560">
    <defs>
      <filter id="shadow">
        <feDropShadow dx="0" dy="0" stdDeviation="4" flood-opacity="0.3"/>
      </filter>
      
    </defs>
    <path d="M0,0 H400 V560 H0 Z M10,10 L10.749468559142374,10.796350983490326 L24.38984242365015,9.247857626361563 L33.459786843105995,8.197058652324719 L43.09899815143507,11.856984326493782 L53.097626545740205,9.365015147470256 L62.29127570190983,9.37078783980317 L73.60912537700072,8.80159037605557 L82.4900561314386,10.29257434333908 L94.13382961970203,11.169966481625933 L101.27477308737913,11.253926448321147 L112.4999612173618,10.86915211402307 L120.95949648296845,10.744216518716794 L130.15526270830554,9.511102096930724 L140.92726307047127,8.824408283566587 L151.8889650587317,8.024190586005162 L162.6693123056643,11.263932872122538 L174.21973794760265,9.744758321457518 L180.78759886314862,11.176377081667201 L190.91120350580093,10.829912336453472 L201.33603624968512,10.593831702105238 L213.9343876649795,11.398766858421656 L220.97902306084404,11.222308228950077 L234.4377923737691,11.796380937060958 L244.1785059966823,8.587529664141627 L253.93327905105863,10.389887549068954 L264.1304978796214,8.21952260568027 L274.6625132574989,8.227315392759559 L280.6413225850125,8.382357221338482 L292.46548013433244,11.448707928797905 L300.1363239541266,10.260069032970238 L312.9594624085452,8.51557834421338 L321.3872617122092,9.810324706401342 L333.2292930691698,10.757445448855583 L342.168889330088,11.626023872560985 L353.2979847113147,8.850647670644223 L364.87394297293275,8.247986674584137 L373.3631934840268,9.5171335990738 L381.0432648478363,10.75576443257647 L390,10 L391.5425970098994,13.027279842868674 L391.4946316032362,21.331786516757283 L391.5157263176957,30.079501050604915 L390.59008801140465,41.44947285735607 L391.17193658082357,54.05519622981507 L389.1531111252104,62.582824235587864 L388.3026327466303,71.11615996406034 L389.73710549872544,84.09650416976204 L390.46269232603345,93.05508542873926 L388.7677594140816,101.88504088155841 L391.7947219079211,112.17928587876708 L390.8819514014269,121.12970526841876 L391.61503667938916,132.05149395277428 L390.8889618938634,142.82443896272082 L390.84924584279827,153.2164743598752 L389.26002514793606,160.58763796955228 L391.00948074117684,170.72294472613706 L391.7481298641777,181.47536963554592 L390.311538323009,191.39295138222295 L391.2113352290426,204.05672089519786 L389.96034073693585,210.6492737400916 L388.7528197400247,222.02721086995658 L391.18606977919643,230.83578021943555 L390.5436292959534,241.5002356581661 L388.5607594510529,251.73620892638132 L388.67424550676714,263.0162876324646 L391.8955790831684,274.346598987875 L389.115791977759,283.4653718223809 L388.16199731147304,292.2086571393303 L388.91763604049515,301.3030988189722 L390.57410424333165,312.37699426647094 L390.26615967605215,322.01170000775886 L388.6117929533422,330.91491427053865 L390.0842201944011,344.49397641615224 L389.59961272232295,350.0391236005084 L388.79680029790484,364.56844201567407 L391.9175592095169,374.34560644702754 L389.9717289711638,381.4005159772473 L389.4868571286547,393.36104852272564 L390.4388858958521,404.84334217378904 L389.99773982952223,412.5814879221076 L390.13346693568866,422.0642068354329 L388.3753886095032,432.52552625002005 L390.7710624487487,441.0728454752244 L390.32409623831825,450.845102986998 L390.6600819039706,462.3638975444415 L389.35184217560277,471.95025282990895 L391.8543385340867,481.3002800007637 L389.57149067647276,491.8113097426014 L388.1354561755812,504.2302409105544 L391.73327743788565,512.4821420233404 L388.95608934162885,521.1652681081271 L390.851816505411,531.7466842109858 L390.9923564501276,541.2191998038986 L390,550 L385.6622806937086,548.1571049289005 L379.51256823509607,550.1714208573275 L367.6667309424873,548.7920025871009 L359.04878708194553,548.6526833395912 L349.43128944110765,550.4294590208932 L337.3774248358251,551.636918049259 L326.6554559634056,549.8797618070456 L316.64299579203447,549.6707395189725 L306.449852909922,550.5703279891256 L297.6104751716429,548.3093432432184 L289.0485582659566,549.981475050871 L279.28464805061003,551.2342374707636 L267.05501110157434,550.3517831837999 L255.87507258291976,549.9706188359933 L245.67718479672322,548.2514284613837 L236.2705627370316,548.5817949992592 L228.42620683053542,548.1312539536623 L215.491871987154,550.5130049258295 L208.58997282058806,551.8216734462378 L199.6667291649675,550.9853765267646 L187.71289953240301,548.3026460881227 L178.94015412773706,548.0780006086057 L169.5030741863662,548.091743991387 L157.19263936608738,551.287385150843 L146.4307749751014,550.2912845434502 L139.8699813273305,548.7360933927131 L126.37982692352776,548.7889121253661 L118.37696621137225,549.6844430168367 L106.09732806910408,549.8485144867058 L99.05916183789886,549.1416058828327 L85.89870652002365,550.0045934182664 L79.1469052571234,549.6699131750021 L68.74963640826017,548.0591808130454 L59.66074924315894,548.0498051972187 L47.13480680980856,550.2898216304499 L36.6502924734999,548.5931511465102 L27.132782225336257,550.637050060467 L18.196496725153036,550.6957589836431 L10,550 L11.49102219890575,549.2487285528063 L8.923373106889356,537.1587183790083 L8.782944009596598,526.2332365575177 L8.725641661679479,518.7307699435844 L8.50883403068608,506.8538911606431 L10.476744232747812,498.1216225779458 L8.044257634289243,486.3259632166115 L9.690551673941872,479.75048609794896 L10.28794524558235,466.4274924056189 L11.260950066551862,455.72154358651164 L9.157409313477103,447.681121882871 L9.703824195315395,438.72183182564464 L11.290689466295184,427.9710054676097 L9.188901889009834,415.98972326457493 L9.262350949572097,408.75265679725743 L8.203378860048634,399.69091043565356 L9.899215928014346,385.66385587592765 L11.697434088541875,375.54582724655273 L9.240337028741688,367.2939436839026 L9.696320372616277,357.032929393555 L11.917508128575438,346.49555035346356 L9.614972678117827,338.6591675491869 L8.422556029559953,327.1511949262065 L10.891446687031952,316.4497818865873 L10.132347354086793,305.07196321634325 L10.129365437541235,298.181242251215 L11.855182714545132,286.6417121879559 L9.854419313170656,278.2933500170654 L8.146335200539166,266.507200643172 L10.975135814177587,258.15757791765884 L10.734787173085202,246.84024150980935 L11.391504689696148,238.26726131026044 L11.114483011731966,225.65244361411774 L9.550942649201321,219.10503592334146 L10.3085965464193,207.74086189055353 L11.794462715646437,196.13016648377717 L10.107755515955247,185.57446203586036 L9.541229260741039,179.1664912304862 L8.947001197527975,169.07633350814675 L11.673204408527752,156.8807683235042 L9.450148657769358,148.98248436071304 L8.067091667304027,139.35872610535927 L9.510329850420709,127.34740031959095 L8.123453081816859,118.04226047349646 L11.629038593912096,106.62677042001127 L10.801066383160869,95.25749091728132 L11.30776146455781,87.38329372227784 L10.50676010203479,79.50231001497569 L9.658879673565785,65.04709806578079 L9.018812579174066,56.64906257949373 L9.52805306656762,49.593907672532055 L8.99022306943376,38.45429635440588 L10.177474966560553,28.656477032474537 L9.375908657187438,17.903954108274267 Z" fill="white" fill-rule="evenodd" filter="url(#shadow)" />
  </svg>