<svg xmlns="http://www.w3.org/2000/svg" viewBox="0 0 400 560" width="400" height="560">
    <defs>
      <filter id="shadow">
        <feDropShadow dx="0" dy="0" stdDeviation="4" flood-opacity="0.3"/>
      </filter>
      
    </defs>
    <path d="M0,0 H400 V560 H0 Z M20,20 L20.892247911951667,21.95886462786816 L30.03501463967323,21.506333881896364 L40.62367856098641,20.28803512062765 L52.76462554943698,18.886812282974837 L64.22298158862888,19.554237133925707 L74.19290866210754,19.452471213653745 L82.0526587293795,19.67279022724842 L91.61173183604826,18.014277088239474 L102.78107694358057,19.04631271302984 L114.98545777943868,20.211179346224682 L123.66671907132289,19.249603021474975 L133.90199077211275,18.73390371871443 L140.11529321978017,20.199065997512843 L152.24571584637587,20.630040805936833 L162.19378868812433,19.53516470315448 L171.66447834849242,20.422503315747832 L182.24661275093493,19.64394927253685 L193.80686929647547,18.589822557528365 L203.2087864054167,20.778969377624467 L210.8058537468867,18.59290205951064 L224.9019145739498,21.612677678918526 L234.57426784559723,21.579838708231335 L244.88785800856826,21.979595128327286 L250.8431107919875,18.317678335703047 L263.88286827528293,18.865224789412842 L274.3670363305656,19.308389536022183 L280.34387982843504,18.702277389979585 L293.7059208770319,20.245826302037738 L304.5551710464878,21.95603495031201 L310.08619729545785,21.479881837851224 L321.0967343369781,19.174086894295716 L330.80531618143516,19.3478661558769 L342.2479532594494,20.228796105219075 L353.6191554482528,19.327738946433385 L360.6622050989473,20.74280588809098 L373.25415441985666,19.17973292355787 L380,20 L379.8205140114251,24.95838687490951 L378.23950983218475,33.22040399166054 L379.3087997296048,40.16579687446662 L380.04870168983865,54.73079769252803 L379.0810643212935,64.52236253895946 L381.71781459319277,71.22252118989306 L379.7113231399653,81.27942804843843 L378.72369718987426,94.12521048657669 L381.2536927114126,103.66832299354449 L379.0963645834059,110.41167432653523 L378.6651794792512,124.38069812905358 L381.82185995254156,130.48354747721572 L380.50223603190153,140.5202940904435 L381.68511072057106,150.3565477654995 L380.1516954604054,164.07463687336923 L378.39304745207414,170.71788902737592 L379.6420208605774,181.03044061242412 L380.5502972582822,193.68969092862181 L378.1741061600993,202.69293680362856 L380.60901362494064,214.37568295530738 L379.91014587283325,222.74010305871792 L380.1165249068408,231.45867720611113 L380.80663561499034,242.99935601798617 L380.0736778652787,251.75772086914355 L380.41104043839727,264.85821380059195 L378.80023113222813,271.81899701866286 L380.53507842898784,280.94510067134865 L380.9109645636077,290.30878157792955 L380.3178060924785,300.9763536726112 L380.1409703133274,311.33753298901837 L379.5736401859323,323.7697231066645 L379.2122211011689,334.39990844069797 L379.838476586117,344.0477802507005 L380.49054772770586,350.56330102624395 L379.92783497427837,362.6220779911706 L380.2221014259206,371.17010545827935 L381.60230556749093,383.5096886354471 L378.18047684188673,393.4595978472421 L380.73697857098705,400.95011066338236 L378.1772835642855,411.7608269347173 L381.2879445610058,420.3686121725065 L381.6710229707004,430.70510438691593 L381.9789286559487,444.3109345576437 L380.8125021869679,450.4263225137726 L381.2944819685906,461.2185364808177 L381.1403742511812,474.7893422927777 L381.77334680538956,484.07246162368034 L380.2060716986618,493.37646302167747 L379.4617798261052,504.3041796541179 L379.76111123225,513.966206554253 L381.35281487777723,524.8188065999088 L378.7502832713744,531.6954097534823 L380,540 L379.25933881865166,540.4135756071032 L368.65176142524416,539.7939170257906 L359.4687985326651,538.5990373188073 L346.9653477374605,540.8542614200054 L336.63954466117684,540.4858558284641 L326.6566273006156,540.0447691509864 L315.2257961837735,538.8307286566677 L309.8787458067822,541.1264262106897 L297.57768480096297,539.7924128815877 L288.6718688656111,539.0726582744429 L278.11410523914026,539.4240305405974 L269.68353201728394,540.2631296436333 L256.4060996638486,540.5478294116425 L245.83193611722936,539.2281671631097 L238.0548143563437,540.901226797374 L226.82968588447918,539.5274779689388 L218.2880648500117,541.7113565725911 L205.14617546777907,540.457321420822 L198.30945718263396,538.0438178945843 L187.27648206242313,539.2917866018887 L177.67449755500195,539.6432730193993 L166.29998705514078,541.8162446625546 L156.91029975310016,538.8216921661125 L146.80012879555974,539.7454705107249 L135.61479796446926,540.7187681816321 L127.37923098572413,538.656514648661 L115.79505772473604,541.3566966869054 L109.58369965476257,540.2472325793233 L99.11201434219561,541.770385898504 L88.05492356492385,538.4576351932568 L79.19024268242546,538.1010333044327 L66.97416859228923,540.0823779587997 L56.581286376746796,540.4701694033226 L49.11573999480685,540.6208806427728 L37.084719464821724,539.5509606930227 L25.19639073885175,540.6584206755575 L20,540 L18.82174464179182,537.5452531056867 L21.818974370745163,526.9182019958935 L20.131816807757513,519.3652974305477 L18.90781239054418,509.98091274264345 L20.16029960720816,496.815986178985 L21.964357772840398,486.21810995249365 L18.48561865659971,479.27584410726615 L21.886985664747193,465.5030332600909 L18.524016021660337,455.92847103309487 L21.910773299090764,445.9118104087529 L19.480048875583655,435.4600367517937 L19.942219634585026,428.8984938423299 L18.83825657060624,417.22212999133006 L18.1711171593938,409.37461039796443 L18.555638330938088,395.9343327124675 L20.18774628571119,389.6631370180426 L20.299228694504645,379.41724322780107 L21.88141225017599,365.48784195741115 L20.811723076967787,357.56319513496135 L21.90784368881256,349.32856402191385 L20.992218211252005,335.3944245209427 L20.271888146468136,327.9268383594373 L20.79915441647519,316.86859758261994 L19.36098397602403,307.60688152674584 L19.50575699985387,298.27921613407045 L18.989980234060116,289.2519818221887 L21.418650038282962,275.72813144362016 L21.5027608282266,266.613279823328 L18.290358721964676,257.92911062493175 L19.49742944404298,247.22552076942688 L18.93611760846,235.96019835397922 L19.923637178053482,225.58054009557708 L20.71462736446373,215.615293570974 L19.035658388480954,206.92750856403507 L19.366401449693765,196.0395735479448 L20.888083527585643,188.4991376130311 L19.439154680790235,176.17103727081286 L20.010593937216775,167.60018691775605 L19.41286402963596,158.1682613550726 L19.93404411597136,148.68392682301825 L18.633402854530466,138.46334806346343 L19.839380777650184,129.32084435174517 L21.432850146304325,117.50032632017107 L21.116272634311624,107.14452256745318 L18.197530913909777,96.79863438592548 L19.081415136294495,87.83405212633711 L21.132168717020335,77.6109112129518 L18.998542572949827,66.68096785356022 L20.519088848025703,58.46250636867071 L21.62691785325226,45.07227042009847 L18.925674049983314,36.014830443377434 L19.4603093457525,27.144963137524275 Z" fill="white" fill-rule="evenodd" filter="url(#shadow)" />
  </svg>