<svg xmlns="http://www.w3.org/2000/svg" viewBox="0 0 400 560" width="400" height="560">
    <defs>
      <filter id="shadow">
        <feDropShadow dx="0" dy="0" stdDeviation="4" flood-opacity="0.3"/>
      </filter>
      
    </defs>
    <path d="M0,0 H400 V560 H0 Z M10,10 L10,9.213342018019745 L15,9.200999552856974 L20,12.330597790791476 L25,9.022545034509692 L30,9.701091604356709 L35,10.492378966314146 L40,12.238259952312532 L45,9.772854973187963 L50,9.686285155840432 L55,9.379466567190383 L60,10.346598339704194 L65,9.126701136904462 L70,12.50475066527116 L75,12.454340944518933 L80,9.049518346152983 L85,12.741795034826486 L90,12.103856569744813 L95,7.651791547881446 L100,8.076121523698394 L105,9.901086786443376 L110,11.168335132180523 L115,7.055362784094081 L120,11.195122961336988 L125,8.940030253688441 L130,12.569879569907862 L135,11.649015288482872 L140,11.167672588042596 L145,9.863248863182926 L150,7.37036354525625 L155,11.032613171022497 L160,10.073853107808887 L165,10.933704520562884 L170,9.1973525095467 L175,7.125078914456466 L180,8.6184271209138 L185,7.1463486730913015 L190,9.357488027713375 L195,10.481329890337593 L200,12.986531062385819 L205,9.151196137567084 L210,12.013051826356936 L215,7.41776630274151 L220,12.181942771628027 L225,7.526572600199341 L230,11.638276140769968 L235,7.840108589141252 L240,10.338078790315175 L245,8.343056856579077 L250,7.973045077114392 L255,8.666731364553819 L260,8.93127792235032 L265,11.427361962236368 L270,8.086137118311132 L275,8.01796178298029 L280,10.556735449386817 L285,9.48883808019165 L290,7.064695594462261 L295,9.701920825224082 L300,11.810535242898442 L305,10.008780653096702 L310,10.305569947919455 L315,7.102521921612949 L320,11.220848731473122 L325,9.661612336827767 L330,8.55319466403049 L335,7.90785199440316 L340,12.12086039367302 L345,11.733410268661661 L350,10.134024324593204 L355,7.252216536089795 L360,10.885649085243854 L365,7.842334187541514 L370,8.216857941321614 L375,11.324174159370235 L380,11.457059771969357 L385,7.849456406436891 L390,10 L388.2579021595805,10 L387.9690236248171,15 L391.9605136942185,20 L387.7292939887115,25 L392.59532047634826,30 L389.5172911211307,35 L389.6463017162099,40 L388.1333285602796,45 L390.4879029962822,50 L390.8202259720921,55 L387.06875267462766,60 L392.25784295871574,65 L387.4322583250425,70 L392.53475626747564,75 L392.5983188614604,80 L390.9299373477959,85 L391.72100365192597,90 L391.2398084536686,95 L392.03378510652965,100 L387.3269937778656,105 L390.1585216763368,110 L390.7839339960145,115 L390.9003785900489,120 L389.6970044040318,125 L391.3191679190528,130 L391.4053712655078,135 L391.4028101350945,140 L392.1301688108842,145 L387.54784617126313,150 L387.50694526019345,155 L390.3273142996393,160 L391.89006348964335,165 L390.58906300117405,170 L389.07550196638346,175 L391.752933772473,180 L391.17875227349464,185 L392.16821382570805,190 L392.33384910976423,195 L388.3699536474039,200 L389.35657148833184,205 L390.0341240452879,210 L391.93271843220305,215 L388.22649436259013,220 L390.1673293439806,225 L390.8606401155024,230 L388.05206970722793,235 L391.0027822029919,240 L392.91480193976133,245 L388.6395958011333,250 L389.1670910582138,255 L389.28989014828124,260 L391.2139009630059,265 L387.9877238060174,270 L389.96265142279873,275 L388.03522429728616,280 L392.58637743098484,285 L387.05085736611727,290 L388.9692819503787,295 L388.6765759484356,300 L387.68404058731056,305 L391.94192113864824,310 L392.9532560313721,315 L387.69988717426,320 L391.72675764498246,325 L392.254925397055,330 L389.3199372013654,335 L387.5386781065061,340 L389.34016305910444,345 L392.2045380415638,350 L388.44675778930326,355 L389.49068465626834,360 L389.1247208491387,365 L387.97784550122486,370 L392.1930403818131,375 L390.5808072749531,380 L387.7593708481328,385 L389.6533375650083,390 L389.53615897167487,395 L388.3244842146845,400 L392.1996964479681,405 L390.89303559975417,410 L391.15607485149917,415 L391.69571605063396,420 L387.5302494305652,425 L388.88843790720415,430 L391.92409914382455,435 L388.86993584761206,440 L392.6867626442932,445 L387.319619672709,450 L392.7833934103102,455 L389.43551703321816,460 L387.9465756824993,465 L391.26009534194725,470 L387.28719847428215,475 L387.3416180957032,480 L389.4244704701947,485 L391.88790587735326,490 L389.8104384543746,495 L392.52404687413093,500 L391.5476055397843,505 L387.1869622570442,510 L391.49983797785,515 L391.52517662501543,520 L389.94404340751,525 L387.04241805501715,530 L388.1543271310943,535 L391.8521776186426,540 L391.5417739736603,545 L390,550 L390,548.0730646635158 L385,549.0748400963599 L380,547.2197927129922 L375,549.7296599007253 L370,549.1397255538778 L365,550.3642601688705 L360,552.4236284745691 L355,548.3386406805312 L350,548.3630613508631 L345,549.2369175151056 L340,549.9902447018696 L335,551.2771982586063 L330,551.2052727784871 L325,552.2204526840347 L320,551.5824344260674 L315,551.4655809207596 L310,549.0825294121304 L305,547.445825308581 L300,548.1218102388337 L295,547.7064353013033 L290,550.3879852037586 L285,547.160591745149 L280,549.9403955353572 L275,550.5502161444352 L270,547.1852743542877 L265,552.6802909482709 L260,547.4969317034698 L255,550.9538895930814 L250,547.0560973283593 L245,549.6634198598219 L240,550.4640699924324 L235,547.6545312223249 L230,550.4091463796801 L225,548.3963484942182 L220,549.8228217286792 L215,548.4227341395085 L210,552.3347432520646 L205,549.6779222565376 L200,548.7751273057959 L195,550.9093336738662 L190,548.2469652973209 L185,549.5287258404604 L180,551.6182980123737 L175,549.2510877667662 L170,550.749114678086 L165,550.9854910390784 L160,549.3276619948398 L155,552.4842105823572 L150,547.2443596145955 L145,547.4010095220805 L140,548.2347160723232 L135,548.2420366293688 L130,551.0161585818324 L125,552.7513509395194 L120,552.2684963316398 L115,552.4790620703853 L110,551.8190611132636 L105,551.1182684039746 L100,548.8406878764897 L95,550.420620041348 L90,550.962416979723 L85,548.0462074845685 L80,550.2535353136728 L75,548.2145633109639 L70,548.02141206691 L65,547.2141411790388 L60,549.6269721909623 L55,550.9799960727911 L50,551.0246091702436 L45,550.2719334643048 L40,548.7246671292597 L35,548.806076926185 L30,547.6255062469309 L25,549.051342011121 L20,552.3869526336404 L15,547.9936637362655 L10,550 L8.624561459435197,550 L7.777410963885096,545 L10.441287729945586,540 L10.000905658949597,535 L12.638314402566195,530 L11.568179390684351,525 L10.319674074240147,520 L7.4101794030364,515 L9.77382534689437,510 L10.926833213277366,505 L8.886214856971304,500 L7.684383094567496,495 L11.75614482526324,490 L9.554899449887454,485 L12.342878293526429,480 L10.398606389648648,475 L8.046481634451311,470 L7.214183834898101,465 L9.373342456594553,460 L8.7483826772529,455 L11.671682769066203,450 L7.818426859926351,445 L11.320290827918663,440 L11.194268339197155,435 L11.130258366271855,430 L8.383865517867468,425 L10.71806031531233,420 L12.581329556777984,415 L11.106250195856722,410 L9.5302022701866,405 L11.795954966181917,400 L7.16616651488644,395 L12.361718787196175,390 L7.83553654082638,385 L9.15000053360373,380 L12.09646723074689,375 L8.994526989249941,370 L7.96402285982348,365 L12.208756661102756,360 L12.40091829399331,355 L8.524423461253273,350 L12.731263633668384,345 L7.225029994106443,340 L7.762714289898792,335 L8.370367819682047,330 L8.765702714149638,325 L10.10854575101575,320 L11.405238952522089,315 L7.400814424172786,310 L11.193501539544057,305 L8.282527625469836,300 L12.714455223241593,295 L7.710143701580035,290 L8.054004255855947,285 L12.074969707712171,280 L11.002946879883222,275 L10.562959133499975,270 L11.153966080262443,265 L7.5598050920077124,260 L8.091898345251863,255 L12.027498915674698,250 L8.416633916278533,245 L9.688909956138477,240 L7.8173852604889085,235 L12.697066763282288,230 L8.998799694885676,225 L7.075685963172287,220 L10.305640118583346,215 L10.217424175130466,210 L9.865465039542666,205 L10.033610186778597,200 L8.76718999527876,195 L11.253110526577291,190 L9.583506986974509,185 L12.840665436796975,180 L11.04399816926994,175 L12.622479987568854,170 L7.7804170407478725,165 L11.833701850607591,160 L11.636028170790322,155 L8.950448284259316,150 L12.412820413795632,145 L10.582530147580407,140 L12.527147712138598,135 L11.600625550172664,130 L12.525643658885947,125 L9.041416743484486,120 L10.16555969732264,115 L7.727471453142183,110 L11.509718426836457,105 L8.170753430285263,100 L9.337202242011012,95 L9.6438892852211,90 L7.687835017730727,85 L11.567383302738838,80 L12.19497609730496,75 L12.637923910644691,70 L10.594777849393413,65 L12.14451315227457,60 L7.599031942609834,55 L8.345056998287248,50 L9.554403040737226,45 L11.831809717369646,40 L9.547221522257761,35 L12.39307279683232,30 L11.142380876568353,25 L12.825743446736773,20 L11.81374730163603,15 Z" fill="white" fill-rule="evenodd" filter="url(#shadow)" />
  </svg>