<svg xmlns="http://www.w3.org/2000/svg" viewBox="0 0 400 560" width="400" height="560">
    <defs>
      <filter id="shadow">
        <feDropShadow dx="0" dy="0" stdDeviation="4" flood-opacity="0.3"/>
      </filter>
      
    </defs>
    <path d="M0,0 H400 V560 H0 Z M20,20 L20,22.965951105102278 L25,17.249661730682735 L30,17.45096295072847 L35,18.15102040170451 L40,17.1185773513725 L45,20.06570390296114 L50,22.948077065980332 L55,20.649650974286114 L60,21.281215297523552 L65,20.408223440310493 L70,18.075009374267253 L75,19.97300464594156 L80,17.379343935763266 L85,22.062403242197504 L90,18.1025595018329 L95,20.684775398389153 L100,17.06787969408037 L105,21.479991528115704 L110,19.074386045121123 L115,17.275979225669925 L120,22.287752412795818 L125,18.079048943651237 L130,22.507078036802174 L135,21.583526155247718 L140,20.608486430449673 L145,20.510228975594966 L150,22.338497117051123 L155,19.8653052195815 L160,17.507452164201965 L165,21.63049817029055 L170,21.60450821814662 L175,22.493841352445276 L180,22.081976237459976 L185,17.532870701933362 L190,20.509280222899427 L195,19.65358515710883 L200,19.108285479613663 L205,19.51366920383369 L210,21.174671294634585 L215,18.732978510164234 L220,20.31157574424423 L225,17.0882566779923 L230,17.344682098093806 L235,22.190921887903652 L240,19.597147754412703 L245,22.252312655579733 L250,22.97879513112959 L255,19.03023501938222 L260,22.52055067396396 L265,20.512957925801473 L270,20.71618262185831 L275,21.363905925389815 L280,19.457120393625626 L285,20.569589823478935 L290,17.984960689993095 L295,22.56290819981797 L300,19.430561753702754 L305,17.59590786184752 L310,17.778388768248803 L315,17.457525614294777 L320,17.16702380843929 L325,18.657962313188367 L330,18.04031975006598 L335,20.556436054565587 L340,20.530663378945604 L345,20.827728009653512 L350,21.630185799135155 L355,18.659240335470333 L360,18.65955264921997 L365,18.000737309593955 L370,18.85557875971348 L375,19.323871631404902 L380,20 L377.0327273683831,20 L382.99961062628523,25 L377.11444590935616,30 L377.6538230506343,35 L380.7676451796117,40 L378.3538800559004,45 L380.058219748006,50 L382.59334731041633,55 L377.8629347906835,60 L380.0419549674036,65 L379.2942448397318,70 L377.91384990931897,75 L381.8918103640754,80 L380.6147168328179,85 L380.5169567070343,90 L382.898941493182,95 L381.18241921012384,100 L381.96713824433306,105 L379.49129370182624,110 L382.92905183144444,115 L379.43864512092483,120 L379.0540669653654,125 L380.75042316225756,130 L382.29426580928555,135 L379.5199354336925,140 L382.10588685805027,145 L380.1354667309769,150 L378.5320936066665,155 L381.3935259578458,160 L382.8797240284078,165 L377.9644275248592,170 L382.351597226256,175 L380.85007172417056,180 L380.6739295930184,185 L378.4883413510903,190 L377.9855948946427,195 L381.98731142639696,200 L381.219921082615,205 L381.5610081917413,210 L378.0114562745008,215 L381.8273404658525,220 L379.69750875358847,225 L379.545768849068,230 L379.3786619760671,235 L380.9469454032907,240 L379.263998039565,245 L377.12863002022624,250 L379.89989360711564,255 L380.245280472634,260 L377.3462889167812,265 L380.56291063700274,270 L378.9349132300292,275 L380.41990401048713,280 L381.13405474375674,285 L377.3198288721388,290 L378.3612157325088,295 L377.90112357334664,300 L379.6415162742801,305 L382.2640409796703,310 L379.45627901948063,315 L382.48395112627645,320 L382.13203169709755,325 L379.64230365592715,330 L378.0846063011802,335 L377.388879756696,340 L381.9050621528122,345 L377.6622609131521,350 L381.43321402422356,355 L382.54381940680713,360 L382.72321795007707,365 L379.67113571978996,370 L379.4827999514418,375 L378.5349712485275,380 L382.82682214694023,385 L381.1633520357187,390 L380.42682661218765,395 L382.57257876826986,400 L382.60088984962823,405 L379.5835948651706,410 L379.5916618806715,415 L382.65338059221097,420 L381.8715412481286,425 L380.7738341984902,430 L379.9399843765801,435 L380.6952452115694,440 L378.1299608823005,445 L382.5183691575896,450 L382.7025080846024,455 L378.3159077844782,460 L380.70019171547125,465 L377.52432015065716,470 L378.31709101340044,475 L381.44113557898254,480 L379.7036051473187,485 L378.02277128450015,490 L382.9423472735609,495 L381.313819954599,500 L378.27570828399087,505 L380.52322465982127,510 L378.19879549119815,515 L381.4999557283031,520 L378.8588901261001,525 L382.8087542265809,530 L378.5590743851188,535 L380,540 L380,539.8984778941821 L375,540.7137877848543 L370,538.828142646342 L365,541.4960191984501 L360,539.4049341137054 L355,537.3632661128883 L350,538.9717470941005 L345,539.8008643450413 L340,541.159249715984 L335,539.2167589153665 L330,538.4079214295573 L325,539.2288142972176 L320,542.7275559364365 L315,541.5876927918857 L310,541.8879675175441 L305,542.3861453281653 L300,538.5363953992978 L295,540.625783857736 L290,541.8942153787274 L285,537.263382379062 L280,538.7027482333488 L275,537.7190590124712 L270,537.4012922842759 L265,539.4636207111372 L260,537.785046350639 L255,540.0557168405853 L250,539.5910666964264 L245,538.8709420950407 L240,542.3743563407988 L235,542.6861724928199 L230,537.2926848708144 L225,537.3069333694025 L220,540.375763584178 L215,542.2352187101868 L210,540.3905896246076 L205,539.011912895755 L200,541.1334989959307 L195,541.5526515162724 L190,539.767290127774 L185,542.5804970400561 L180,540.7690052187974 L175,538.1421271518625 L170,538.634769083111 L165,538.8094083451218 L160,541.2603118937814 L155,537.4063717693865 L150,542.7771809033861 L145,540.2578199547529 L140,539.7588807564208 L135,538.151676539906 L130,538.6474399646912 L125,539.4328644740649 L120,538.9667790748929 L115,541.7244822914887 L110,538.3599433614866 L105,542.0036402835756 L100,540.825123523302 L95,542.5842573122427 L90,537.5224480793933 L85,537.4856600221905 L80,541.195840140717 L75,541.3367200755786 L70,538.4095567785989 L65,541.3847445796032 L60,539.5354227436128 L55,538.3330099131371 L50,541.997002249509 L45,541.4015789053242 L40,542.9963661910742 L35,540.9936432347932 L30,539.335648449431 L25,539.281751388481 L20,540 L20.652226399149246,540 L18.7146158469394,535 L18.125670113547287,530 L17.51928098229855,525 L17.141507715434628,520 L19.083735430951723,515 L20.669715232653267,510 L19.60204076984222,505 L20.299344895392665,500 L17.950597615853155,495 L17.436236415532854,490 L18.176583551226567,485 L19.309258407428004,480 L22.429269348468907,475 L22.18954897753451,470 L22.00510425656816,465 L20.483378132267266,460 L22.685321594124723,455 L17.095456874342503,450 L21.752438952040105,445 L22.961603777138244,440 L17.497348164109134,435 L21.39076565261069,430 L19.351674168054377,425 L19.223285561034984,420 L21.820229267156442,415 L19.720392873674058,410 L20.81937487601335,405 L21.555930910239447,400 L18.837349069172102,395 L19.486323284194484,390 L18.31784518518507,385 L21.16429034855721,380 L17.89710213193477,375 L22.939532577529732,370 L22.02313450769754,365 L22.463205403081197,360 L18.333536407958693,355 L17.207988392008364,350 L19.18923146274205,345 L17.220935593660542,340 L22.479547322524237,335 L18.694062227983636,330 L18.290589991797837,325 L20.890089169171137,320 L21.06390875454035,315 L19.822390156652062,310 L18.924845119450524,305 L22.04427026991302,300 L17.218031083237236,295 L22.41097489931819,290 L20.156028326318346,285 L17.478926267752442,280 L21.543141597129733,275 L20.39587278670877,270 L19.314735796215032,265 L21.414579372326394,260 L19.356536431436336,255 L19.350999643888635,250 L17.076104652090283,245 L21.73277975233354,240 L17.174834825958254,235 L21.94454367950071,230 L17.232785602358273,225 L20.463439429724527,220 L18.614164021687387,215 L20.45823164075888,210 L21.15604596026875,205 L22.378180107982466,200 L19.74243149486076,195 L21.229284387189793,190 L18.322911242959098,185 L22.30076200745589,180 L22.48081245509151,175 L19.09586762624243,170 L20.06543602747318,165 L19.13690126092903,160 L22.413790163884187,155 L17.91713352577585,150 L20.643679633733388,145 L18.030514425487837,140 L22.88909265707684,135 L21.303799201952007,130 L21.59428897001273,125 L21.92084691576651,120 L17.274664009789234,115 L20.218327754482786,110 L18.881701104246662,105 L18.22746963038129,100 L20.982546666574045,95 L18.401967513516553,90 L17.10559076462381,85 L17.54538118117635,80 L22.79213373241319,75 L18.335462460158176,70 L17.948211601992014,65 L20.753252761472112,60 L20.605966140202916,55 L18.75510271761477,50 L20.71842167607837,45 L22.70318685958521,40 L20.5946929138573,35 L19.56874944892541,30 L21.61980547529157,25 Z" fill="white" fill-rule="evenodd" filter="url(#shadow)" />
  </svg>