<svg xmlns="http://www.w3.org/2000/svg" viewBox="0 0 400 560" width="400" height="560">
    <defs>
      <filter id="shadow">
        <feDropShadow dx="0" dy="0" stdDeviation="4" flood-opacity="0.3"/>
      </filter>
      
    </defs>
    <path d="M0,0 H400 V560 H0 Z M10,10 Q20,15 30,10 Q40,15 50,10 Q60,15 70,10 Q80,15 90,10 Q100,15 110,10 Q120,15 130,10 Q140,15 150,10 Q160,15 170,10 Q180,15 190,10 Q200,15 210,10 Q220,15 230,10 Q240,15 250,10 Q260,15 270,10 Q280,15 290,10 Q300,15 310,10 Q320,15 330,10 Q340,15 350,10 Q360,15 370,10 Q380,15 390,10 Q385,20 390,30 Q385,40 390,50 Q385,60 390,70 Q385,80 390,90 Q385,100 390,110 Q385,120 390,130 Q385,140 390,150 Q385,160 390,170 Q385,180 390,190 Q385,200 390,210 Q385,220 390,230 Q385,240 390,250 Q385,260 390,270 Q385,280 390,290 Q385,300 390,310 Q385,320 390,330 Q385,340 390,350 Q385,360 390,370 Q385,380 390,390 Q385,400 390,410 Q385,420 390,430 Q385,440 390,450 Q385,460 390,470 Q385,480 390,490 Q385,500 390,510 Q385,520 390,530 Q385,540 390,550 Q380,545 370,550 Q360,545 350,550 Q340,545 330,550 Q320,545 310,550 Q300,545 290,550 Q280,545 270,550 Q260,545 250,550 Q240,545 230,550 Q220,545 210,550 Q200,545 190,550 Q180,545 170,550 Q160,545 150,550 Q140,545 130,550 Q120,545 110,550 Q100,545 90,550 Q80,545 70,550 Q60,545 50,550 Q40,545 30,550 Q20,545 10,550 Q15,540 10,530 Q15,520 10,510 Q15,500 10,490 Q15,480 10,470 Q15,460 10,450 Q15,440 10,430 Q15,420 10,410 Q15,400 10,390 Q15,380 10,370 Q15,360 10,350 Q15,340 10,330 Q15,320 10,310 Q15,300 10,290 Q15,280 10,270 Q15,260 10,250 Q15,240 10,230 Q15,220 10,210 Q15,200 10,190 Q15,180 10,170 Q15,160 10,150 Q15,140 10,130 Q15,120 10,110 Q15,100 10,90 Q15,80 10,70 Q15,60 10,50 Q15,40 10,30 Q15,20 10,10 Z" fill="white" fill-rule="evenodd" filter="url(#shadow)" />
  </svg>