<svg xmlns="http://www.w3.org/2000/svg" viewBox="0 0 400 560" width="400" height="560">
    <defs>
      <filter id="shadow">
        <feDropShadow dx="0" dy="0" stdDeviation="4" flood-opacity="0.3"/>
      </filter>
      
    </defs>
    <path d="M0,0 H400 V560 H0 Z M20,20 Q30,25 40,20 Q50,25 60,20 Q70,25 80,20 Q90,25 100,20 Q110,25 120,20 Q130,25 140,20 Q150,25 160,20 Q170,25 180,20 Q190,25 200,20 Q210,25 220,20 Q230,25 240,20 Q250,25 260,20 Q270,25 280,20 Q290,25 300,20 Q310,25 320,20 Q330,25 340,20 Q350,25 360,20 Q370,25 380,20 Q375,30 380,40 Q375,50 380,60 Q375,70 380,80 Q375,90 380,100 Q375,110 380,120 Q375,130 380,140 Q375,150 380,160 Q375,170 380,180 Q375,190 380,200 Q375,210 380,220 Q375,230 380,240 Q375,250 380,260 Q375,270 380,280 Q375,290 380,300 Q375,310 380,320 Q375,330 380,340 Q375,350 380,360 Q375,370 380,380 Q375,390 380,400 Q375,410 380,420 Q375,430 380,440 Q375,450 380,460 Q375,470 380,480 Q375,490 380,500 Q375,510 380,520 Q375,530 380,540 Q370,535 360,540 Q350,535 340,540 Q330,535 320,540 Q310,535 300,540 Q290,535 280,540 Q270,535 260,540 Q250,535 240,540 Q230,535 220,540 Q210,535 200,540 Q190,535 180,540 Q170,535 160,540 Q150,535 140,540 Q130,535 120,540 Q110,535 100,540 Q90,535 80,540 Q70,535 60,540 Q50,535 40,540 Q30,535 20,540 Q25,530 20,520 Q25,510 20,500 Q25,490 20,480 Q25,470 20,460 Q25,450 20,440 Q25,430 20,420 Q25,410 20,400 Q25,390 20,380 Q25,370 20,360 Q25,350 20,340 Q25,330 20,320 Q25,310 20,300 Q25,290 20,280 Q25,270 20,260 Q25,250 20,240 Q25,230 20,220 Q25,210 20,200 Q25,190 20,180 Q25,170 20,160 Q25,150 20,140 Q25,130 20,120 Q25,110 20,100 Q25,90 20,80 Q25,70 20,60 Q25,50 20,40 Q25,30 20,20 Z" fill="white" fill-rule="evenodd" filter="url(#shadow)" />
  </svg>