<svg xmlns="http://www.w3.org/2000/svg" viewBox="0 0 400 560" width="400" height="560">
    <defs>
      <filter id="shadow">
        <feDropShadow dx="0" dy="0" stdDeviation="4" flood-opacity="0.3"/>
      </filter>
      
    </defs>
    <path d="M0,0 H400 V560 H0 Z M20,20 A10,10 0 0,1 40,20 A10,10 0 0,1 60,20 A10,10 0 0,1 80,20 A10,10 0 0,1 100,20 A10,10 0 0,1 120,20 A10,10 0 0,1 140,20 A10,10 0 0,1 160,20 A10,10 0 0,1 180,20 A10,10 0 0,1 200,20 A10,10 0 0,1 220,20 A10,10 0 0,1 240,20 A10,10 0 0,1 260,20 A10,10 0 0,1 280,20 A10,10 0 0,1 300,20 A10,10 0 0,1 320,20 A10,10 0 0,1 340,20 A10,10 0 0,1 360,20 A10,10 0 0,1 380,20 A10,10 0 0,1 380,40 A10,10 0 0,1 380,60 A10,10 0 0,1 380,80 A10,10 0 0,1 380,100 A10,10 0 0,1 380,120 A10,10 0 0,1 380,140 A10,10 0 0,1 380,160 A10,10 0 0,1 380,180 A10,10 0 0,1 380,200 A10,10 0 0,1 380,220 A10,10 0 0,1 380,240 A10,10 0 0,1 380,260 A10,10 0 0,1 380,280 A10,10 0 0,1 380,300 A10,10 0 0,1 380,320 A10,10 0 0,1 380,340 A10,10 0 0,1 380,360 A10,10 0 0,1 380,380 A10,10 0 0,1 380,400 A10,10 0 0,1 380,420 A10,10 0 0,1 380,440 A10,10 0 0,1 380,460 A10,10 0 0,1 380,480 A10,10 0 0,1 380,500 A10,10 0 0,1 380,520 A10,10 0 0,1 380,540 A10,10 0 0,1 360,540 A10,10 0 0,1 340,540 A10,10 0 0,1 320,540 A10,10 0 0,1 300,540 A10,10 0 0,1 280,540 A10,10 0 0,1 260,540 A10,10 0 0,1 240,540 A10,10 0 0,1 220,540 A10,10 0 0,1 200,540 A10,10 0 0,1 180,540 A10,10 0 0,1 160,540 A10,10 0 0,1 140,540 A10,10 0 0,1 120,540 A10,10 0 0,1 100,540 A10,10 0 0,1 80,540 A10,10 0 0,1 60,540 A10,10 0 0,1 40,540 A10,10 0 0,1 20,540 A10,10 0 0,1 20,520 A10,10 0 0,1 20,500 A10,10 0 0,1 20,480 A10,10 0 0,1 20,460 A10,10 0 0,1 20,440 A10,10 0 0,1 20,420 A10,10 0 0,1 20,400 A10,10 0 0,1 20,380 A10,10 0 0,1 20,360 A10,10 0 0,1 20,340 A10,10 0 0,1 20,320 A10,10 0 0,1 20,300 A10,10 0 0,1 20,280 A10,10 0 0,1 20,260 A10,10 0 0,1 20,240 A10,10 0 0,1 20,220 A10,10 0 0,1 20,200 A10,10 0 0,1 20,180 A10,10 0 0,1 20,160 A10,10 0 0,1 20,140 A10,10 0 0,1 20,120 A10,10 0 0,1 20,100 A10,10 0 0,1 20,80 A10,10 0 0,1 20,60 A10,10 0 0,1 20,40 A10,10 0 0,1 20,20 Z" fill="white" fill-rule="evenodd" filter="url(#shadow)" />
  </svg>