<svg xmlns="http://www.w3.org/2000/svg" viewBox="0 0 400 560" width="400" height="560">
    <defs>
      <filter id="shadow">
        <feDropShadow dx="0" dy="0" stdDeviation="4" flood-opacity="0.3"/>
      </filter>
      
    </defs>
    <path d="M0,0 H400 V560 H0 Z M20,10 C25,18 32,18 38,16 Q35,12 40,10 C45,18 52,18 58,16 Q55,12 60,10 C65,18 72,18 78,16 Q75,12 80,10 C85,18 92,18 98,16 Q95,12 100,10 C105,18 112,18 118,16 Q115,12 120,10 C125,18 132,18 138,16 Q135,12 140,10 C145,18 152,18 158,16 Q155,12 160,10 C165,18 172,18 178,16 Q175,12 180,10 C185,18 192,18 198,16 Q195,12 200,10 C205,18 212,18 218,16 Q215,12 220,10 C225,18 232,18 238,16 Q235,12 240,10 C245,18 252,18 258,16 Q255,12 260,10 C265,18 272,18 278,16 Q275,12 280,10 C285,18 292,18 298,16 Q295,12 300,10 C305,18 312,18 318,16 Q315,12 320,10 C325,18 332,18 338,16 Q335,12 340,10 C345,18 352,18 358,16 Q355,12 360,10 C365,18 372,18 378,16 Q375,12 380,10 A10,10 0 0,1 390,20 C382,25 382,32 384,38 Q388,35 390,40 C382,45 382,52 384,58 Q388,55 390,60 C382,65 382,72 384,78 Q388,75 390,80 C382,85 382,92 384,98 Q388,95 390,100 C382,105 382,112 384,118 Q388,115 390,120 C382,125 382,132 384,138 Q388,135 390,140 C382,145 382,152 384,158 Q388,155 390,160 C382,165 382,172 384,178 Q388,175 390,180 C382,185 382,192 384,198 Q388,195 390,200 C382,205 382,212 384,218 Q388,215 390,220 C382,225 382,232 384,238 Q388,235 390,240 C382,245 382,252 384,258 Q388,255 390,260 C382,265 382,272 384,278 Q388,275 390,280 C382,285 382,292 384,298 Q388,295 390,300 C382,305 382,312 384,318 Q388,315 390,320 C382,325 382,332 384,338 Q388,335 390,340 C382,345 382,352 384,358 Q388,355 390,360 C382,365 382,372 384,378 Q388,375 390,380 C382,385 382,392 384,398 Q388,395 390,400 C382,405 382,412 384,418 Q388,415 390,420 C382,425 382,432 384,438 Q388,435 390,440 C382,445 382,452 384,458 Q388,455 390,460 C382,465 382,472 384,478 Q388,475 390,480 C382,485 382,492 384,498 Q388,495 390,500 C382,505 382,512 384,518 Q388,515 390,520 C382,525 382,532 384,538 Q388,535 390,540 A10,10 0 0,1 380,550 C375,542 368,542 362,544 Q365,548 360,550 C355,542 348,542 342,544 Q345,548 340,550 C335,542 328,542 322,544 Q325,548 320,550 C315,542 308,542 302,544 Q305,548 300,550 C295,542 288,542 282,544 Q285,548 280,550 C275,542 268,542 262,544 Q265,548 260,550 C255,542 248,542 242,544 Q245,548 240,550 C235,542 228,542 222,544 Q225,548 220,550 C215,542 208,542 202,544 Q205,548 200,550 C195,542 188,542 182,544 Q185,548 180,550 C175,542 168,542 162,544 Q165,548 160,550 C155,542 148,542 142,544 Q145,548 140,550 C135,542 128,542 122,544 Q125,548 120,550 C115,542 108,542 102,544 Q105,548 100,550 C95,542 88,542 82,544 Q85,548 80,550 C75,542 68,542 62,544 Q65,548 60,550 C55,542 48,542 42,544 Q45,548 40,550 C35,542 28,542 22,544 Q25,548 20,550 A10,10 0 0,1 10,540 C18,535 18,528 16,522 Q12,525 10,520 C18,515 18,508 16,502 Q12,505 10,500 C18,495 18,488 16,482 Q12,485 10,480 C18,475 18,468 16,462 Q12,465 10,460 C18,455 18,448 16,442 Q12,445 10,440 C18,435 18,428 16,422 Q12,425 10,420 C18,415 18,408 16,402 Q12,405 10,400 C18,395 18,388 16,382 Q12,385 10,380 C18,375 18,368 16,362 Q12,365 10,360 C18,355 18,348 16,342 Q12,345 10,340 C18,335 18,328 16,322 Q12,325 10,320 C18,315 18,308 16,302 Q12,305 10,300 C18,295 18,288 16,282 Q12,285 10,280 C18,275 18,268 16,262 Q12,265 10,260 C18,255 18,248 16,242 Q12,245 10,240 C18,235 18,228 16,222 Q12,225 10,220 C18,215 18,208 16,202 Q12,205 10,200 C18,195 18,188 16,182 Q12,185 10,180 C18,175 18,168 16,162 Q12,165 10,160 C18,155 18,148 16,142 Q12,145 10,140 C18,135 18,128 16,122 Q12,125 10,120 C18,115 18,108 16,102 Q12,105 10,100 C18,95 18,88 16,82 Q12,85 10,80 C18,75 18,68 16,62 Q12,65 10,60 C18,55 18,48 16,42 Q12,45 10,40 C18,35 18,28 16,22 Q12,25 10,20 A10,10 0 0,1 20,10 Z" fill="white" fill-rule="evenodd" filter="url(#shadow)" />
  </svg>