<svg xmlns="http://www.w3.org/2000/svg" viewBox="0 0 400 560" width="400" height="560">
    <defs>
      <filter id="shadow">
        <feDropShadow dx="0" dy="0" stdDeviation="4" flood-opacity="0.3"/>
      </filter>
      
    </defs>
    <path d="M0,0 H400 V560 H0 Z M20,10 C28,24 38,18 40,10 C48,24 58,18 60,10 C68,24 78,18 80,10 C88,24 98,18 100,10 C108,24 118,18 120,10 C128,24 138,18 140,10 C148,24 158,18 160,10 C168,24 178,18 180,10 C188,24 198,18 200,10 C208,24 218,18 220,10 C228,24 238,18 240,10 C248,24 258,18 260,10 C268,24 278,18 280,10 C288,24 298,18 300,10 C308,24 318,18 320,10 C328,24 338,18 340,10 C348,24 358,18 360,10 C368,24 378,18 380,10 A10,10 0 0,1 390,20 C376,28 382,38 390,40 C376,48 382,58 390,60 C376,68 382,78 390,80 C376,88 382,98 390,100 C376,108 382,118 390,120 C376,128 382,138 390,140 C376,148 382,158 390,160 C376,168 382,178 390,180 C376,188 382,198 390,200 C376,208 382,218 390,220 C376,228 382,238 390,240 C376,248 382,258 390,260 C376,268 382,278 390,280 C376,288 382,298 390,300 C376,308 382,318 390,320 C376,328 382,338 390,340 C376,348 382,358 390,360 C376,368 382,378 390,380 C376,388 382,398 390,400 C376,408 382,418 390,420 C376,428 382,438 390,440 C376,448 382,458 390,460 C376,468 382,478 390,480 C376,488 382,498 390,500 C376,508 382,518 390,520 C376,528 382,538 390,540 A10,10 0 0,1 380,550 C372,536 362,542 360,550 C352,536 342,542 340,550 C332,536 322,542 320,550 C312,536 302,542 300,550 C292,536 282,542 280,550 C272,536 262,542 260,550 C252,536 242,542 240,550 C232,536 222,542 220,550 C212,536 202,542 200,550 C192,536 182,542 180,550 C172,536 162,542 160,550 C152,536 142,542 140,550 C132,536 122,542 120,550 C112,536 102,542 100,550 C92,536 82,542 80,550 C72,536 62,542 60,550 C52,536 42,542 40,550 C32,536 22,542 20,550 A10,10 0 0,1 10,540 C24,532 18,522 10,520 C24,512 18,502 10,500 C24,492 18,482 10,480 C24,472 18,462 10,460 C24,452 18,442 10,440 C24,432 18,422 10,420 C24,412 18,402 10,400 C24,392 18,382 10,380 C24,372 18,362 10,360 C24,352 18,342 10,340 C24,332 18,322 10,320 C24,312 18,302 10,300 C24,292 18,282 10,280 C24,272 18,262 10,260 C24,252 18,242 10,240 C24,232 18,222 10,220 C24,212 18,202 10,200 C24,192 18,182 10,180 C24,172 18,162 10,160 C24,152 18,142 10,140 C24,132 18,122 10,120 C24,112 18,102 10,100 C24,92 18,82 10,80 C24,72 18,62 10,60 C24,52 18,42 10,40 C24,32 18,22 10,20 A10,10 0 0,1 20,10 Z" fill="white" fill-rule="evenodd" filter="url(#shadow)" />
  </svg>