<svg xmlns="http://www.w3.org/2000/svg" viewBox="0 0 400 560" width="400" height="560">
    <defs>
      <filter id="shadow">
        <feDropShadow dx="0" dy="0" stdDeviation="4" flood-opacity="0.3"/>
      </filter>
      
    </defs>
    <path d="M0,0 H400 V560 H0 Z M20,20 A10,10 0 0,0 40,20 A10,10 0 0,0 60,20 A10,10 0 0,0 80,20 A10,10 0 0,0 100,20 A10,10 0 0,0 120,20 A10,10 0 0,0 140,20 A10,10 0 0,0 160,20 A10,10 0 0,0 180,20 A10,10 0 0,0 200,20 A10,10 0 0,0 220,20 A10,10 0 0,0 240,20 A10,10 0 0,0 260,20 A10,10 0 0,0 280,20 A10,10 0 0,0 300,20 A10,10 0 0,0 320,20 A10,10 0 0,0 340,20 A10,10 0 0,0 360,20 A10,10 0 0,0 380,20 A10,10 0 0,0 380,40 A10,10 0 0,0 380,60 A10,10 0 0,0 380,80 A10,10 0 0,0 380,100 A10,10 0 0,0 380,120 A10,10 0 0,0 380,140 A10,10 0 0,0 380,160 A10,10 0 0,0 380,180 A10,10 0 0,0 380,200 A10,10 0 0,0 380,220 A10,10 0 0,0 380,240 A10,10 0 0,0 380,260 A10,10 0 0,0 380,280 A10,10 0 0,0 380,300 A10,10 0 0,0 380,320 A10,10 0 0,0 380,340 A10,10 0 0,0 380,360 A10,10 0 0,0 380,380 A10,10 0 0,0 380,400 A10,10 0 0,0 380,420 A10,10 0 0,0 380,440 A10,10 0 0,0 380,460 A10,10 0 0,0 380,480 A10,10 0 0,0 380,500 A10,10 0 0,0 380,520 A10,10 0 0,0 380,540 A10,10 0 0,0 360,540 A10,10 0 0,0 340,540 A10,10 0 0,0 320,540 A10,10 0 0,0 300,540 A10,10 0 0,0 280,540 A10,10 0 0,0 260,540 A10,10 0 0,0 240,540 A10,10 0 0,0 220,540 A10,10 0 0,0 200,540 A10,10 0 0,0 180,540 A10,10 0 0,0 160,540 A10,10 0 0,0 140,540 A10,10 0 0,0 120,540 A10,10 0 0,0 100,540 A10,10 0 0,0 80,540 A10,10 0 0,0 60,540 A10,10 0 0,0 40,540 A10,10 0 0,0 20,540 A10,10 0 0,0 20,520 A10,10 0 0,0 20,500 A10,10 0 0,0 20,480 A10,10 0 0,0 20,460 A10,10 0 0,0 20,440 A10,10 0 0,0 20,420 A10,10 0 0,0 20,400 A10,10 0 0,0 20,380 A10,10 0 0,0 20,360 A10,10 0 0,0 20,340 A10,10 0 0,0 20,320 A10,10 0 0,0 20,300 A10,10 0 0,0 20,280 A10,10 0 0,0 20,260 A10,10 0 0,0 20,240 A10,10 0 0,0 20,220 A10,10 0 0,0 20,200 A10,10 0 0,0 20,180 A10,10 0 0,0 20,160 A10,10 0 0,0 20,140 A10,10 0 0,0 20,120 A10,10 0 0,0 20,100 A10,10 0 0,0 20,80 A10,10 0 0,0 20,60 A10,10 0 0,0 20,40 A10,10 0 0,0 20,20 Z" fill="white" fill-rule="evenodd" filter="url(#shadow)" />
  </svg>