<svg xmlns="http://www.w3.org/2000/svg" viewBox="0 0 400 560" width="400" height="560">
    <defs>
      <filter id="shadow">
        <feDropShadow dx="0" dy="0" stdDeviation="4" flood-opacity="0.3"/>
      </filter>
      
    </defs>
    <path d="M0,0 H400 V560 H0 Z M10,10 Q15,15 20,10 T30,10 Q35,15 40,10 T50,10 Q55,15 60,10 T70,10 Q75,15 80,10 T90,10 Q95,15 100,10 T110,10 Q115,15 120,10 T130,10 Q135,15 140,10 T150,10 Q155,15 160,10 T170,10 Q175,15 180,10 T190,10 Q195,15 200,10 T210,10 Q215,15 220,10 T230,10 Q235,15 240,10 T250,10 Q255,15 260,10 T270,10 Q275,15 280,10 T290,10 Q295,15 300,10 T310,10 Q315,15 320,10 T330,10 Q335,15 340,10 T350,10 Q355,15 360,10 T370,10 Q375,15 380,10 T390,10 Q385,15 390,20 T390,30 Q385,35 390,40 T390,50 Q385,55 390,60 T390,70 Q385,75 390,80 T390,90 Q385,95 390,100 T390,110 Q385,115 390,120 T390,130 Q385,135 390,140 T390,150 Q385,155 390,160 T390,170 Q385,175 390,180 T390,190 Q385,195 390,200 T390,210 Q385,215 390,220 T390,230 Q385,235 390,240 T390,250 Q385,255 390,260 T390,270 Q385,275 390,280 T390,290 Q385,295 390,300 T390,310 Q385,315 390,320 T390,330 Q385,335 390,340 T390,350 Q385,355 390,360 T390,370 Q385,375 390,380 T390,390 Q385,395 390,400 T390,410 Q385,415 390,420 T390,430 Q385,435 390,440 T390,450 Q385,455 390,460 T390,470 Q385,475 390,480 T390,490 Q385,495 390,500 T390,510 Q385,515 390,520 T390,530 Q385,535 390,540 T390,550 Q385,545 380,550 T370,550 Q365,545 360,550 T350,550 Q345,545 340,550 T330,550 Q325,545 320,550 T310,550 Q305,545 300,550 T290,550 Q285,545 280,550 T270,550 Q265,545 260,550 T250,550 Q245,545 240,550 T230,550 Q225,545 220,550 T210,550 Q205,545 200,550 T190,550 Q185,545 180,550 T170,550 Q165,545 160,550 T150,550 Q145,545 140,550 T130,550 Q125,545 120,550 T110,550 Q105,545 100,550 T90,550 Q85,545 80,550 T70,550 Q65,545 60,550 T50,550 Q45,545 40,550 T30,550 Q25,545 20,550 T10,550 Q15,545 10,540 T10,530 Q15,525 10,520 T10,510 Q15,505 10,500 T10,490 Q15,485 10,480 T10,470 Q15,465 10,460 T10,450 Q15,445 10,440 T10,430 Q15,425 10,420 T10,410 Q15,405 10,400 T10,390 Q15,385 10,380 T10,370 Q15,365 10,360 T10,350 Q15,345 10,340 T10,330 Q15,325 10,320 T10,310 Q15,305 10,300 T10,290 Q15,285 10,280 T10,270 Q15,265 10,260 T10,250 Q15,245 10,240 T10,230 Q15,225 10,220 T10,210 Q15,205 10,200 T10,190 Q15,185 10,180 T10,170 Q15,165 10,160 T10,150 Q15,145 10,140 T10,130 Q15,125 10,120 T10,110 Q15,105 10,100 T10,90 Q15,85 10,80 T10,70 Q15,65 10,60 T10,50 Q15,45 10,40 T10,30 Q15,25 10,20 T10,10 Z" fill="white" fill-rule="evenodd" filter="url(#shadow)" />
  </svg>