<svg xmlns="http://www.w3.org/2000/svg" viewBox="0 0 400 560" width="400" height="560">
    <defs>
      <filter id="shadow">
        <feDropShadow dx="0" dy="0" stdDeviation="4" flood-opacity="0.3"/>
      </filter>
      
    </defs>
    <path d="M0,0 H400 V560 H0 Z M20,20 Q30,30 40,20 T60,20 Q70,30 80,20 T100,20 Q110,30 120,20 T140,20 Q150,30 160,20 T180,20 Q190,30 200,20 T220,20 Q230,30 240,20 T260,20 Q270,30 280,20 T300,20 Q310,30 320,20 T340,20 Q350,30 360,20 T380,20 Q370,30 380,40 T380,60 Q370,70 380,80 T380,100 Q370,110 380,120 T380,140 Q370,150 380,160 T380,180 Q370,190 380,200 T380,220 Q370,230 380,240 T380,260 Q370,270 380,280 T380,300 Q370,310 380,320 T380,340 Q370,350 380,360 T380,380 Q370,390 380,400 T380,420 Q370,430 380,440 T380,460 Q370,470 380,480 T380,500 Q370,510 380,520 T380,540 Q370,530 360,540 T340,540 Q330,530 320,540 T300,540 Q290,530 280,540 T260,540 Q250,530 240,540 T220,540 Q210,530 200,540 T180,540 Q170,530 160,540 T140,540 Q130,530 120,540 T100,540 Q90,530 80,540 T60,540 Q50,530 40,540 T20,540 Q30,530 20,520 T20,500 Q30,490 20,480 T20,460 Q30,450 20,440 T20,420 Q30,410 20,400 T20,380 Q30,370 20,360 T20,340 Q30,330 20,320 T20,300 Q30,290 20,280 T20,260 Q30,250 20,240 T20,220 Q30,210 20,200 T20,180 Q30,170 20,160 T20,140 Q30,130 20,120 T20,100 Q30,90 20,80 T20,60 Q30,50 20,40 T20,20 Z" fill="white" fill-rule="evenodd" filter="url(#shadow)" />
  </svg>