<svg xmlns="http://www.w3.org/2000/svg" viewBox="0 0 400 560" width="400" height="560">
    <defs>
      <filter id="shadow">
        <feDropShadow dx="0" dy="0" stdDeviation="4" flood-opacity="0.3"/>
      </filter>
      
    </defs>
    <path d="M0,0 H400 V560 H0 Z M20,20 L25,25 L30,20 L35,25 L40,20 L45,25 L50,20 L55,25 L60,20 L65,25 L70,20 L75,25 L80,20 L85,25 L90,20 L95,25 L100,20 L105,25 L110,20 L115,25 L120,20 L125,25 L130,20 L135,25 L140,20 L145,25 L150,20 L155,25 L160,20 L165,25 L170,20 L175,25 L180,20 L185,25 L190,20 L195,25 L200,20 L205,25 L210,20 L215,25 L220,20 L225,25 L230,20 L235,25 L240,20 L245,25 L250,20 L255,25 L260,20 L265,25 L270,20 L275,25 L280,20 L285,25 L290,20 L295,25 L300,20 L305,25 L310,20 L315,25 L320,20 L325,25 L330,20 L335,25 L340,20 L345,25 L350,20 L355,25 L360,20 L365,25 L370,20 L375,25 L380,20 L375,25 L380,30 L375,35 L380,40 L375,45 L380,50 L375,55 L380,60 L375,65 L380,70 L375,75 L380,80 L375,85 L380,90 L375,95 L380,100 L375,105 L380,110 L375,115 L380,120 L375,125 L380,130 L375,135 L380,140 L375,145 L380,150 L375,155 L380,160 L375,165 L380,170 L375,175 L380,180 L375,185 L380,190 L375,195 L380,200 L375,205 L380,210 L375,215 L380,220 L375,225 L380,230 L375,235 L380,240 L375,245 L380,250 L375,255 L380,260 L375,265 L380,270 L375,275 L380,280 L375,285 L380,290 L375,295 L380,300 L375,305 L380,310 L375,315 L380,320 L375,325 L380,330 L375,335 L380,340 L375,345 L380,350 L375,355 L380,360 L375,365 L380,370 L375,375 L380,380 L375,385 L380,390 L375,395 L380,400 L375,405 L380,410 L375,415 L380,420 L375,425 L380,430 L375,435 L380,440 L375,445 L380,450 L375,455 L380,460 L375,465 L380,470 L375,475 L380,480 L375,485 L380,490 L375,495 L380,500 L375,505 L380,510 L375,515 L380,520 L375,525 L380,530 L375,535 L380,540 L375,535 L370,540 L365,535 L360,540 L355,535 L350,540 L345,535 L340,540 L335,535 L330,540 L325,535 L320,540 L315,535 L310,540 L305,535 L300,540 L295,535 L290,540 L285,535 L280,540 L275,535 L270,540 L265,535 L260,540 L255,535 L250,540 L245,535 L240,540 L235,535 L230,540 L225,535 L220,540 L215,535 L210,540 L205,535 L200,540 L195,535 L190,540 L185,535 L180,540 L175,535 L170,540 L165,535 L160,540 L155,535 L150,540 L145,535 L140,540 L135,535 L130,540 L125,535 L120,540 L115,535 L110,540 L105,535 L100,540 L95,535 L90,540 L85,535 L80,540 L75,535 L70,540 L65,535 L60,540 L55,535 L50,540 L45,535 L40,540 L35,535 L30,540 L25,535 L20,540 L25,535 L20,530 L25,525 L20,520 L25,515 L20,510 L25,505 L20,500 L25,495 L20,490 L25,485 L20,480 L25,475 L20,470 L25,465 L20,460 L25,455 L20,450 L25,445 L20,440 L25,435 L20,430 L25,425 L20,420 L25,415 L20,410 L25,405 L20,400 L25,395 L20,390 L25,385 L20,380 L25,375 L20,370 L25,365 L20,360 L25,355 L20,350 L25,345 L20,340 L25,335 L20,330 L25,325 L20,320 L25,315 L20,310 L25,305 L20,300 L25,295 L20,290 L25,285 L20,280 L25,275 L20,270 L25,265 L20,260 L25,255 L20,250 L25,245 L20,240 L25,235 L20,230 L25,225 L20,220 L25,215 L20,210 L25,205 L20,200 L25,195 L20,190 L25,185 L20,180 L25,175 L20,170 L25,165 L20,160 L25,155 L20,150 L25,145 L20,140 L25,135 L20,130 L25,125 L20,120 L25,115 L20,110 L25,105 L20,100 L25,95 L20,90 L25,85 L20,80 L25,75 L20,70 L25,65 L20,60 L25,55 L20,50 L25,45 L20,40 L25,35 L20,30 L25,25 L20,20 Z" fill="white" fill-rule="evenodd" filter="url(#shadow)" />
  </svg>