<svg xmlns="http://www.w3.org/2000/svg" viewBox="0 0 400 560" width="400" height="560">
    <defs>
      <filter id="shadow">
        <feDropShadow dx="0" dy="0" stdDeviation="4" flood-opacity="0.3"/>
      </filter>
      
    </defs>
    <path d="M0,0 H400 V560 H0 Z M10,10 L15,15 L20,10 L25,15 L30,10 L35,15 L40,10 L45,15 L50,10 L55,15 L60,10 L65,15 L70,10 L75,15 L80,10 L85,15 L90,10 L95,15 L100,10 L105,15 L110,10 L115,15 L120,10 L125,15 L130,10 L135,15 L140,10 L145,15 L150,10 L155,15 L160,10 L165,15 L170,10 L175,15 L180,10 L185,15 L190,10 L195,15 L200,10 L205,15 L210,10 L215,15 L220,10 L225,15 L230,10 L235,15 L240,10 L245,15 L250,10 L255,15 L260,10 L265,15 L270,10 L275,15 L280,10 L285,15 L290,10 L295,15 L300,10 L305,15 L310,10 L315,15 L320,10 L325,15 L330,10 L335,15 L340,10 L345,15 L350,10 L355,15 L360,10 L365,15 L370,10 L375,15 L380,10 L385,15 L390,10 L385,15 L390,20 L385,25 L390,30 L385,35 L390,40 L385,45 L390,50 L385,55 L390,60 L385,65 L390,70 L385,75 L390,80 L385,85 L390,90 L385,95 L390,100 L385,105 L390,110 L385,115 L390,120 L385,125 L390,130 L385,135 L390,140 L385,145 L390,150 L385,155 L390,160 L385,165 L390,170 L385,175 L390,180 L385,185 L390,190 L385,195 L390,200 L385,205 L390,210 L385,215 L390,220 L385,225 L390,230 L385,235 L390,240 L385,245 L390,250 L385,255 L390,260 L385,265 L390,270 L385,275 L390,280 L385,285 L390,290 L385,295 L390,300 L385,305 L390,310 L385,315 L390,320 L385,325 L390,330 L385,335 L390,340 L385,345 L390,350 L385,355 L390,360 L385,365 L390,370 L385,375 L390,380 L385,385 L390,390 L385,395 L390,400 L385,405 L390,410 L385,415 L390,420 L385,425 L390,430 L385,435 L390,440 L385,445 L390,450 L385,455 L390,460 L385,465 L390,470 L385,475 L390,480 L385,485 L390,490 L385,495 L390,500 L385,505 L390,510 L385,515 L390,520 L385,525 L390,530 L385,535 L390,540 L385,545 L390,550 L385,545 L380,550 L375,545 L370,550 L365,545 L360,550 L355,545 L350,550 L345,545 L340,550 L335,545 L330,550 L325,545 L320,550 L315,545 L310,550 L305,545 L300,550 L295,545 L290,550 L285,545 L280,550 L275,545 L270,550 L265,545 L260,550 L255,545 L250,550 L245,545 L240,550 L235,545 L230,550 L225,545 L220,550 L215,545 L210,550 L205,545 L200,550 L195,545 L190,550 L185,545 L180,550 L175,545 L170,550 L165,545 L160,550 L155,545 L150,550 L145,545 L140,550 L135,545 L130,550 L125,545 L120,550 L115,545 L110,550 L105,545 L100,550 L95,545 L90,550 L85,545 L80,550 L75,545 L70,550 L65,545 L60,550 L55,545 L50,550 L45,545 L40,550 L35,545 L30,550 L25,545 L20,550 L15,545 L10,550 L15,545 L10,540 L15,535 L10,530 L15,525 L10,520 L15,515 L10,510 L15,505 L10,500 L15,495 L10,490 L15,485 L10,480 L15,475 L10,470 L15,465 L10,460 L15,455 L10,450 L15,445 L10,440 L15,435 L10,430 L15,425 L10,420 L15,415 L10,410 L15,405 L10,400 L15,395 L10,390 L15,385 L10,380 L15,375 L10,370 L15,365 L10,360 L15,355 L10,350 L15,345 L10,340 L15,335 L10,330 L15,325 L10,320 L15,315 L10,310 L15,305 L10,300 L15,295 L10,290 L15,285 L10,280 L15,275 L10,270 L15,265 L10,260 L15,255 L10,250 L15,245 L10,240 L15,235 L10,230 L15,225 L10,220 L15,215 L10,210 L15,205 L10,200 L15,195 L10,190 L15,185 L10,180 L15,175 L10,170 L15,165 L10,160 L15,155 L10,150 L15,145 L10,140 L15,135 L10,130 L15,125 L10,120 L15,115 L10,110 L15,105 L10,100 L15,95 L10,90 L15,85 L10,80 L15,75 L10,70 L15,65 L10,60 L15,55 L10,50 L15,45 L10,40 L15,35 L10,30 L15,25 L10,20 L15,15 L10,10 Z" fill="white" fill-rule="evenodd" filter="url(#shadow)" />
  </svg>